<svg width="81" height="73" viewBox="0 0 81 73" fill="none" xmlns="http://www.w3.org/2000/svg">
<path d="M66.4683 23.594C65.6079 23.2989 64.7403 23.0255 63.8662 22.7739C64.013 22.1739 64.1482 21.5812 64.2682 20.9989C66.2381 11.4365 64.9503 3.73277 60.5517 1.19635C56.3343 -1.23523 49.4372 1.30025 42.4715 7.36246C41.785 7.96096 41.1137 8.57674 40.4583 9.2092C40.0196 8.78865 39.5731 8.37627 39.1191 7.97225C31.8186 1.49035 24.5012 -1.24154 20.1073 1.30214C15.8937 3.7413 14.646 10.9833 16.4195 20.0458C16.5959 20.9434 16.7951 21.8363 17.0169 22.7237C15.9812 23.018 14.9817 23.3313 14.0252 23.6648C5.466 26.649 0 31.3255 0 36.1764C0 41.1864 5.868 46.2115 14.7827 49.2586C15.5055 49.5045 16.2342 49.7325 16.9683 49.9423C16.73 50.8981 16.5183 51.8603 16.3336 52.8279C14.6428 61.7332 15.9632 68.804 20.1654 71.2277C24.5056 73.7307 31.7902 71.1583 38.8832 64.9577C39.4583 64.4536 40.0208 63.9352 40.5701 63.4031C41.2798 64.0879 42.0086 64.7528 42.7554 65.397C49.6263 71.3092 56.412 73.6966 60.6101 71.2663C64.9462 68.756 66.3556 61.16 64.5259 51.9185C64.3818 51.1945 64.2201 50.474 64.0412 49.7578C64.5527 49.6063 65.0548 49.4503 65.5443 49.2879C74.8121 46.2175 80.8421 41.2533 80.8421 36.1764C80.8421 31.3078 75.1996 26.5997 66.4683 23.594ZM64.4583 46.01C64.0158 46.1561 63.5632 46.2977 63.1004 46.4348C62.0773 43.1957 60.6966 39.7517 59.0068 36.1931C60.6193 32.7194 61.9468 29.3193 62.9413 26.1014C63.7683 26.3408 64.5707 26.5931 65.3444 26.8593C72.8255 29.4349 77.3886 33.2424 77.3886 36.1764C77.3886 39.3014 72.4604 43.3584 64.4583 46.01ZM61.1381 52.5892C61.9472 56.6755 62.0624 60.3703 61.5265 63.2588C61.0453 65.8543 60.077 67.5845 58.8796 68.2776C56.3321 69.7524 50.8838 67.8355 45.0079 62.7791C44.3133 62.1801 43.6355 61.562 42.9752 60.9254C45.2533 58.4341 47.5298 55.538 49.7517 52.3214C53.6599 51.9747 57.3521 51.4075 60.7004 50.6335C60.8657 51.2992 61.0116 51.9511 61.1381 52.5892ZM27.5608 68.0228C25.0718 68.9016 23.0893 68.9269 21.8908 68.2359C19.3408 66.7653 18.2807 61.0877 19.7267 53.4721C19.8986 52.5722 20.0954 51.6773 20.3169 50.7883C23.6283 51.5209 27.2937 52.0476 31.2111 52.3653C33.4481 55.5128 35.7903 58.4057 38.1508 60.939C37.6492 61.4244 37.1356 61.8974 36.6107 62.3575C33.474 65.0992 30.3309 67.0445 27.5608 68.0228ZM15.9 45.9908C11.958 44.6433 8.70253 42.8923 6.47116 40.9814C4.46589 39.2645 3.45379 37.5595 3.45379 36.1764C3.45379 33.2326 7.84232 29.4778 15.162 26.9259C16.0503 26.6165 16.98 26.3244 17.9447 26.0502C18.9565 29.3408 20.2835 32.7813 21.8848 36.2604C20.2626 39.7909 18.9167 43.2864 17.8952 46.6157C17.2251 46.4238 16.5598 46.2154 15.9 45.9908ZM19.8088 19.3824C18.2896 11.618 19.2985 5.76109 21.8378 4.29109C24.5422 2.72541 30.5226 4.95772 36.8261 10.5548C37.2372 10.9206 37.6415 11.2938 38.0391 11.6742C35.6902 14.1965 33.3695 17.0679 31.1523 20.1968C27.3502 20.5492 23.7107 21.1151 20.3646 21.8733C20.1584 21.0479 19.9731 20.2171 19.8088 19.3824ZM54.6805 27.9936C53.8902 26.6284 53.0705 25.2804 52.2221 23.9506C54.8015 24.2768 57.2728 24.7097 59.5936 25.239C58.8969 27.4722 58.0285 29.8069 57.0063 32.2006C56.2591 30.7829 55.4837 29.3803 54.6805 27.9936ZM40.4599 14.1428C42.0527 15.8686 43.6481 17.7952 45.2173 19.8857C42.0341 19.7354 38.8456 19.7347 35.6624 19.8838C37.2332 17.8126 38.8421 15.8885 40.4599 14.1428ZM26.148 28.017C25.3548 29.3925 24.5939 30.7864 23.8658 32.1974C22.8603 29.8122 21.9998 27.4669 21.2972 25.202C23.6037 24.686 26.0634 24.2641 28.6263 23.9439C27.7685 25.282 26.9422 26.6402 26.148 28.017ZM28.6999 48.6541C26.052 48.3586 23.5554 47.9585 21.2495 47.4564C21.9632 45.1511 22.8426 42.7558 23.8699 40.3195C24.6009 41.7316 25.365 43.1263 26.1616 44.5025C26.9807 45.9172 27.8289 47.3029 28.6999 48.6541ZM40.5553 58.4531C38.9182 56.6872 37.2856 54.7334 35.6912 52.6321C37.2392 52.6928 38.8172 52.7237 40.4211 52.7237C42.0688 52.7237 43.6977 52.6868 45.3009 52.6154C43.7267 54.7546 42.1374 56.7112 40.5553 58.4531ZM57.0388 40.1951C58.1195 42.6582 59.0302 45.0409 59.7534 47.3067C57.4096 47.8416 54.8788 48.2724 52.2123 48.5923C53.0668 47.2377 53.8942 45.8663 54.6941 44.4788C55.5074 43.0685 56.2892 41.6402 57.0388 40.1951ZM51.7026 42.7533C50.478 44.8805 49.1846 46.9674 47.8244 49.0107C45.3605 49.1853 42.8911 49.272 40.4211 49.2706C37.9052 49.2706 35.4581 49.1923 33.1017 49.0394C31.7059 47.001 30.3878 44.9104 29.1502 42.7722C27.9183 40.6455 26.768 38.4727 25.7012 36.2585C26.7653 34.0438 27.9124 31.8699 29.1401 29.7415L29.1398 29.7418C30.3669 27.6128 31.6744 25.5312 33.0597 23.5015C35.4638 23.3196 37.9292 23.2249 40.4207 23.2249C42.9237 23.2249 45.3925 23.3206 47.796 23.5037C49.1673 25.5304 50.4665 27.6048 51.6913 29.7232C52.9229 31.847 54.0852 34.0102 55.1763 36.2095C54.0963 38.4313 52.9377 40.6139 51.7026 42.7533ZM58.8268 4.18783C61.5338 5.74909 62.5866 12.045 60.8858 20.3013C60.7767 20.8285 60.6557 21.3642 60.5226 21.9087C57.1683 21.1344 53.5263 20.5587 49.7132 20.2009C47.4919 17.0376 45.1901 14.1617 42.8795 11.672C43.4851 11.0883 44.105 10.5197 44.7388 9.96677C50.7073 4.77298 56.2854 2.72225 58.8268 4.18783ZM40.4211 28.9574C44.4079 28.9574 47.64 32.1895 47.64 36.1764C47.64 40.1632 44.4079 43.3953 40.4211 43.3953C36.4342 43.3953 33.2021 40.1632 33.2021 36.1764C33.2021 32.1895 36.4342 28.9574 40.4211 28.9574Z" fill="#00D8FF"/>
</svg>
