<svg width="81" height="44" viewBox="0 0 81 44" fill="none" xmlns="http://www.w3.org/2000/svg">
<path d="M28.328 28.376H13.376C12.7413 29.9067 12.2 31.2693 11.752 32.464C11.304 33.6213 10.9307 34.6293 10.632 35.488C10.3707 36.3467 10.184 37.0747 10.072 37.672C9.96 38.2693 9.904 38.7547 9.904 39.128C9.904 40.1733 10.24 40.9013 10.912 41.312C11.584 41.6853 12.704 41.872 14.272 41.872V44H0.664V41.872C1.52267 41.76 2.25067 41.6107 2.848 41.424C3.48267 41.2373 4.024 40.976 4.472 40.64C4.95733 40.304 5.368 39.8747 5.704 39.352C6.07733 38.792 6.432 38.12 6.768 37.336L21.328 0.879998H23.736L36.448 32.464C37.3067 34.5547 38.0533 36.2347 38.688 37.504C39.3227 38.736 39.9387 39.6693 40.536 40.304C41.1333 40.9387 41.768 41.3493 42.44 41.536C43.1493 41.7227 43.9893 41.816 44.96 41.816V44H26.704V41.816C28.6827 41.816 30.0453 41.6293 30.792 41.256C31.5387 40.8827 31.912 40.2667 31.912 39.408C31.912 39.0347 31.8933 38.6987 31.856 38.4C31.8187 38.064 31.744 37.7093 31.632 37.336C31.5573 36.9627 31.4267 36.552 31.24 36.104C31.0907 35.6187 30.8853 35.0587 30.624 34.424L28.328 28.376ZM14.496 25.576H27.264L21.048 9.056L14.496 25.576ZM58.8178 35.096C58.8178 36.5147 58.8925 37.672 59.0418 38.568C59.2285 39.4267 59.6018 40.0987 60.1618 40.584C60.7218 41.032 61.5058 41.3493 62.5138 41.536C63.5591 41.7227 64.9218 41.8347 66.6018 41.872V44H46.7778V41.872C48.0845 41.8347 49.1298 41.7227 49.9138 41.536C50.7351 41.3493 51.3698 41.032 51.8178 40.584C52.2658 40.136 52.5645 39.5013 52.7138 38.68C52.8631 37.8587 52.9378 36.7947 52.9378 35.488V9.392C52.9378 8.08533 52.8631 7.04 52.7138 6.256C52.6018 5.43466 52.3405 4.8 51.9298 4.352C51.5565 3.86667 50.9965 3.54933 50.2498 3.4C49.5031 3.21333 48.5325 3.08266 47.3378 3.008V0.879998H79.7058L80.3218 11.576H78.3618C78.1378 9.97066 77.7831 8.664 77.2978 7.656C76.8125 6.61066 76.1218 5.78933 75.2258 5.192C74.3671 4.59466 73.2658 4.184 71.9218 3.96C70.5778 3.69866 68.8978 3.568 66.8818 3.568H59.7698C59.1351 3.568 58.8178 3.88533 58.8178 4.52V21.432C60.6098 21.432 62.1405 21.3387 63.4098 21.152C64.7165 20.928 65.7805 20.5547 66.6018 20.032C67.4605 19.5093 68.1138 18.8 68.5618 17.904C69.0098 17.008 69.2898 15.8507 69.4018 14.432H71.3618V30.84H69.4018C69.2151 29.4213 68.9165 28.2453 68.5058 27.312C68.0951 26.3787 67.4791 25.6507 66.6578 25.128C65.8738 24.6053 64.8471 24.232 63.5778 24.008C62.3085 23.784 60.7218 23.672 58.8178 23.672V35.096Z" fill="url(#paint0_linear_86_69)"/>
<defs>
<linearGradient id="paint0_linear_86_69" x1="86.5" y1="-4.5" x2="-3.5" y2="46" gradientUnits="userSpaceOnUse">
<stop stop-color="#909090"/>
<stop offset="0.486667" stop-color="#FF3D00"/>
<stop offset="1" stop-color="#060606"/>
</linearGradient>
</defs>
</svg>
